<?xml version="1.0" standalone="no"?>
<!DOCTYPE svg PUBLIC "-//W3C//DTD SVG 20010904//EN"
 "http://www.w3.org/TR/2001/REC-SVG-20010904/DTD/svg10.dtd">
<svg version="1.0" xmlns="http://www.w3.org/2000/svg"
 width="1000.000000pt" height="1000.000000pt" viewBox="0 0 1000.000000 1000.000000"
 preserveAspectRatio="xMidYMid meet">
<metadata>
Created by potrace 1.14, written by Peter Selinger 2001-2017
</metadata>
<g transform="translate(0.000000,1000.000000) scale(0.100000,-0.100000)"
fill="#000000" stroke="none">
<path d="M4615 9660 c-11 -4 -36 -14 -54 -21 -47 -18 -98 -64 -124 -113 -22
-40 -22 -49 -22 -411 l0 -370 88 -3 87 -3 0 -149 0 -150 -132 0 c-116 0 -137
-3 -166 -20 -56 -35 -62 -63 -62 -315 l0 -225 -91 0 c-68 0 -98 -4 -120 -17
-63 -37 -59 54 -59 -1462 l0 -1380 -152 -3 -153 -3 0 -325 c0 -233 4 -337 13
-367 31 -102 136 -201 238 -224 l53 -12 3 -607 3 -607 30 -49 c37 -59 106
-104 170 -111 l45 -6 0 -113 0 -114 -104 0 c-101 0 -105 -1 -125 -26 -19 -25
-21 -40 -21 -199 0 -224 -4 -219 143 -223 l106 -4 3 -211 c3 -200 4 -214 26
-252 13 -22 39 -52 59 -65 34 -23 47 -25 170 -28 l133 -4 0 -183 c0 -249 -4
-243 145 -247 l80 -3 5 -215 5 -215 77 -129 77 -129 90 139 91 139 0 208 0
207 94 0 c130 0 126 -8 126 236 l0 192 133 4 c125 3 136 5 174 30 71 47 78 73
81 316 l3 212 100 0 c93 0 102 2 124 25 25 24 25 26 25 204 0 228 4 221 -147
221 l-103 0 0 115 0 115 35 0 c48 0 128 42 159 83 58 75 56 56 56 700 l0 594
54 12 c98 22 177 89 225 191 l26 55 3 338 3 337 -156 0 -155 0 0 1385 c0 1523
4 1427 -60 1460 -20 10 -58 15 -120 15 l-90 0 0 234 c0 226 -1 234 -23 267
-35 52 -57 59 -204 59 l-133 0 0 150 0 150 91 0 90 0 -3 373 c-3 363 -4 373
-25 414 -29 53 -85 100 -148 124 -46 17 -80 19 -410 18 -198 0 -369 -4 -380
-9z m573 -812 l-3 -433 -190 0 -190 0 -3 433 -2 432 195 0 195 0 -2 -432z
m332 -843 l0 -125 -525 0 -525 0 0 125 0 125 525 0 525 0 0 -125z m190 -1710
l0 -1275 -110 0 -110 0 -2 1063 -3 1063 -25 37 c-67 99 -202 100 -274 3 -21
-27 -21 -34 -24 -1097 l-2 -1069 -155 0 -155 0 0 1053 0 1053 -22 44 c-59 117
-227 117 -285 0 l-23 -44 0 -1053 0 -1053 -120 0 -120 0 0 1275 0 1275 715 0
715 0 0 -1275z m320 -1745 l0 -150 -640 0 -640 0 0 -140 0 -140 490 0 491 0
-3 -87 -3 -88 -717 -3 -718 -2 -2 227 -3 228 -162 3 -163 2 0 144 c0 78 3 146
7 149 3 4 469 7 1035 7 l1028 0 0 -150z m-1590 -1042 c0 -111 2 -125 25 -163
57 -98 206 -101 271 -6 22 33 24 44 24 163 l0 128 240 0 240 0 0 -310 0 -310
-480 0 -480 0 0 310 0 310 80 0 80 0 0 -122z m1270 -188 l0 -300 -95 0 -95 0
0 300 0 300 95 0 95 0 0 -300z m-740 -703 c5 -82 7 -91 33 -113 27 -23 35 -24
167 -24 131 0 140 1 166 24 26 21 28 30 32 115 l4 92 72 -3 71 -3 3 -162 2
-163 -520 0 -520 0 0 158 c0 87 3 162 7 166 4 3 113 5 242 4 l236 -3 5 -88z
m0 -626 c0 -59 4 -74 24 -98 l24 -28 151 0 c187 0 191 3 199 119 l5 76 78 0
79 0 0 -160 0 -160 -532 2 -533 3 -3 158 -3 157 256 0 255 0 0 -69z m228 -663
l-3 -143 -200 0 -200 0 -3 143 -3 142 206 0 206 0 -3 -142z"/>
</g>
</svg>
